<mxfile host="app.diagrams.net" modified="2023-10-15T13:46:35.642Z" agent="Mozilla/5.0 (Windows NT 10.0; Win64; x64) AppleWebKit/537.36 (KHTML, like Gecko) Chrome/116.0.5845.967 YaBrowser/23.9.1.967 Yowser/2.5 Safari/537.36" etag="85-WgVLE7AqvouFTJNsq" version="22.0.0" type="device">
  <diagram name="Страница 1" id="S7gOY0Rzj4mQ5rikbTW1">
    <mxGraphModel dx="1104" dy="458" grid="1" gridSize="10" guides="1" tooltips="1" connect="1" arrows="1" fold="1" page="1" pageScale="1" pageWidth="827" pageHeight="1169" math="0" shadow="0">
      <root>
        <mxCell id="0" />
        <mxCell id="1" parent="0" />
        <mxCell id="nHcn8lxnYbYXo1y7nSyQ-3" value="" style="edgeStyle=orthogonalEdgeStyle;rounded=0;orthogonalLoop=1;jettySize=auto;html=1;" parent="1" source="nHcn8lxnYbYXo1y7nSyQ-1" target="nHcn8lxnYbYXo1y7nSyQ-2" edge="1">
          <mxGeometry relative="1" as="geometry" />
        </mxCell>
        <mxCell id="nHcn8lxnYbYXo1y7nSyQ-1" value="start" style="ellipse;whiteSpace=wrap;html=1;" parent="1" vertex="1">
          <mxGeometry x="570" y="230" width="120" height="60" as="geometry" />
        </mxCell>
        <mxCell id="nHcn8lxnYbYXo1y7nSyQ-7" value="" style="edgeStyle=orthogonalEdgeStyle;rounded=0;orthogonalLoop=1;jettySize=auto;html=1;" parent="1" source="nHcn8lxnYbYXo1y7nSyQ-2" target="nHcn8lxnYbYXo1y7nSyQ-6" edge="1">
          <mxGeometry relative="1" as="geometry" />
        </mxCell>
        <mxCell id="nHcn8lxnYbYXo1y7nSyQ-2" value="sizeArray&lt;br&gt;array" style="shape=parallelogram;perimeter=parallelogramPerimeter;whiteSpace=wrap;html=1;fixedSize=1;" parent="1" vertex="1">
          <mxGeometry x="570" y="320" width="120" height="60" as="geometry" />
        </mxCell>
        <mxCell id="nHcn8lxnYbYXo1y7nSyQ-9" value="" style="edgeStyle=orthogonalEdgeStyle;rounded=0;orthogonalLoop=1;jettySize=auto;html=1;" parent="1" source="nHcn8lxnYbYXo1y7nSyQ-6" target="nHcn8lxnYbYXo1y7nSyQ-8" edge="1">
          <mxGeometry relative="1" as="geometry" />
        </mxCell>
        <mxCell id="nHcn8lxnYbYXo1y7nSyQ-6" value="count = 0&lt;br&gt;i = 0" style="whiteSpace=wrap;html=1;" parent="1" vertex="1">
          <mxGeometry x="570" y="410" width="120" height="60" as="geometry" />
        </mxCell>
        <mxCell id="nHcn8lxnYbYXo1y7nSyQ-11" value="" style="edgeStyle=orthogonalEdgeStyle;rounded=0;orthogonalLoop=1;jettySize=auto;html=1;" parent="1" source="nHcn8lxnYbYXo1y7nSyQ-8" edge="1">
          <mxGeometry relative="1" as="geometry">
            <mxPoint x="630" y="650" as="targetPoint" />
          </mxGeometry>
        </mxCell>
        <mxCell id="nHcn8lxnYbYXo1y7nSyQ-43" style="edgeStyle=orthogonalEdgeStyle;rounded=0;orthogonalLoop=1;jettySize=auto;html=1;" parent="1" source="nHcn8lxnYbYXo1y7nSyQ-8" target="nHcn8lxnYbYXo1y7nSyQ-22" edge="1">
          <mxGeometry relative="1" as="geometry" />
        </mxCell>
        <mxCell id="nHcn8lxnYbYXo1y7nSyQ-8" value="i &amp;lt; array.Length" style="rhombus;whiteSpace=wrap;html=1;" parent="1" vertex="1">
          <mxGeometry x="520" y="510" width="220" height="80" as="geometry" />
        </mxCell>
        <mxCell id="nHcn8lxnYbYXo1y7nSyQ-12" value="yes" style="text;html=1;strokeColor=none;fillColor=none;align=center;verticalAlign=middle;whiteSpace=wrap;rounded=0;" parent="1" vertex="1">
          <mxGeometry x="580" y="600" width="60" height="30" as="geometry" />
        </mxCell>
        <mxCell id="nHcn8lxnYbYXo1y7nSyQ-15" value="" style="edgeStyle=orthogonalEdgeStyle;rounded=0;orthogonalLoop=1;jettySize=auto;html=1;" parent="1" source="nHcn8lxnYbYXo1y7nSyQ-13" target="nHcn8lxnYbYXo1y7nSyQ-14" edge="1">
          <mxGeometry relative="1" as="geometry" />
        </mxCell>
        <mxCell id="nHcn8lxnYbYXo1y7nSyQ-20" style="edgeStyle=orthogonalEdgeStyle;rounded=0;orthogonalLoop=1;jettySize=auto;html=1;entryX=1;entryY=0.5;entryDx=0;entryDy=0;" parent="1" source="nHcn8lxnYbYXo1y7nSyQ-13" target="nHcn8lxnYbYXo1y7nSyQ-17" edge="1">
          <mxGeometry relative="1" as="geometry">
            <mxPoint x="480" y="720" as="targetPoint" />
          </mxGeometry>
        </mxCell>
        <mxCell id="nHcn8lxnYbYXo1y7nSyQ-13" value="array[i].Length &amp;lt;= 3" style="rhombus;whiteSpace=wrap;html=1;" parent="1" vertex="1">
          <mxGeometry x="520" y="650" width="220" height="80" as="geometry" />
        </mxCell>
        <mxCell id="nHcn8lxnYbYXo1y7nSyQ-18" value="" style="edgeStyle=orthogonalEdgeStyle;rounded=0;orthogonalLoop=1;jettySize=auto;html=1;" parent="1" source="nHcn8lxnYbYXo1y7nSyQ-14" target="nHcn8lxnYbYXo1y7nSyQ-17" edge="1">
          <mxGeometry relative="1" as="geometry" />
        </mxCell>
        <mxCell id="nHcn8lxnYbYXo1y7nSyQ-14" value="count++" style="whiteSpace=wrap;html=1;" parent="1" vertex="1">
          <mxGeometry x="570" y="790" width="120" height="60" as="geometry" />
        </mxCell>
        <mxCell id="nHcn8lxnYbYXo1y7nSyQ-16" value="yes" style="text;html=1;strokeColor=none;fillColor=none;align=center;verticalAlign=middle;whiteSpace=wrap;rounded=0;" parent="1" vertex="1">
          <mxGeometry x="580" y="740" width="60" height="30" as="geometry" />
        </mxCell>
        <mxCell id="nHcn8lxnYbYXo1y7nSyQ-52" style="edgeStyle=orthogonalEdgeStyle;rounded=0;orthogonalLoop=1;jettySize=auto;html=1;entryX=0;entryY=0.5;entryDx=0;entryDy=0;exitX=0.5;exitY=0;exitDx=0;exitDy=0;" parent="1" source="nHcn8lxnYbYXo1y7nSyQ-17" target="nHcn8lxnYbYXo1y7nSyQ-8" edge="1">
          <mxGeometry relative="1" as="geometry" />
        </mxCell>
        <mxCell id="nHcn8lxnYbYXo1y7nSyQ-17" value="i++" style="whiteSpace=wrap;html=1;" parent="1" vertex="1">
          <mxGeometry x="340" y="660" width="120" height="60" as="geometry" />
        </mxCell>
        <mxCell id="nHcn8lxnYbYXo1y7nSyQ-29" value="" style="edgeStyle=orthogonalEdgeStyle;rounded=0;orthogonalLoop=1;jettySize=auto;html=1;" parent="1" source="nHcn8lxnYbYXo1y7nSyQ-22" target="nHcn8lxnYbYXo1y7nSyQ-28" edge="1">
          <mxGeometry relative="1" as="geometry" />
        </mxCell>
        <mxCell id="nHcn8lxnYbYXo1y7nSyQ-22" value="string[] newArray = new string[count]&lt;br&gt;i = 0" style="whiteSpace=wrap;html=1;" parent="1" vertex="1">
          <mxGeometry x="930" y="520" width="220" height="60" as="geometry" />
        </mxCell>
        <mxCell id="nHcn8lxnYbYXo1y7nSyQ-24" value="no" style="text;html=1;strokeColor=none;fillColor=none;align=center;verticalAlign=middle;whiteSpace=wrap;rounded=0;" parent="1" vertex="1">
          <mxGeometry x="460" y="660" width="60" height="30" as="geometry" />
        </mxCell>
        <mxCell id="nHcn8lxnYbYXo1y7nSyQ-26" value="no" style="text;html=1;strokeColor=none;fillColor=none;align=center;verticalAlign=middle;whiteSpace=wrap;rounded=0;" parent="1" vertex="1">
          <mxGeometry x="810" y="520" width="60" height="30" as="geometry" />
        </mxCell>
        <mxCell id="nHcn8lxnYbYXo1y7nSyQ-31" value="" style="edgeStyle=orthogonalEdgeStyle;rounded=0;orthogonalLoop=1;jettySize=auto;html=1;" parent="1" source="nHcn8lxnYbYXo1y7nSyQ-28" target="nHcn8lxnYbYXo1y7nSyQ-30" edge="1">
          <mxGeometry relative="1" as="geometry" />
        </mxCell>
        <mxCell id="nHcn8lxnYbYXo1y7nSyQ-46" value="" style="edgeStyle=orthogonalEdgeStyle;rounded=0;orthogonalLoop=1;jettySize=auto;html=1;" parent="1" source="nHcn8lxnYbYXo1y7nSyQ-28" target="nHcn8lxnYbYXo1y7nSyQ-45" edge="1">
          <mxGeometry relative="1" as="geometry" />
        </mxCell>
        <mxCell id="nHcn8lxnYbYXo1y7nSyQ-28" value="i &amp;lt; array.Length" style="rhombus;whiteSpace=wrap;html=1;" parent="1" vertex="1">
          <mxGeometry x="940" y="650" width="200" height="80" as="geometry" />
        </mxCell>
        <mxCell id="nHcn8lxnYbYXo1y7nSyQ-34" value="" style="edgeStyle=orthogonalEdgeStyle;rounded=0;orthogonalLoop=1;jettySize=auto;html=1;" parent="1" source="nHcn8lxnYbYXo1y7nSyQ-30" target="nHcn8lxnYbYXo1y7nSyQ-33" edge="1">
          <mxGeometry relative="1" as="geometry" />
        </mxCell>
        <mxCell id="nHcn8lxnYbYXo1y7nSyQ-58" value="" style="edgeStyle=orthogonalEdgeStyle;rounded=0;orthogonalLoop=1;jettySize=auto;html=1;" parent="1" source="nHcn8lxnYbYXo1y7nSyQ-30" target="nHcn8lxnYbYXo1y7nSyQ-38" edge="1">
          <mxGeometry relative="1" as="geometry" />
        </mxCell>
        <mxCell id="nHcn8lxnYbYXo1y7nSyQ-30" value="array[i].Length &amp;lt;= 3" style="rhombus;whiteSpace=wrap;html=1;" parent="1" vertex="1">
          <mxGeometry x="940" y="780" width="200" height="80" as="geometry" />
        </mxCell>
        <mxCell id="nHcn8lxnYbYXo1y7nSyQ-39" style="edgeStyle=orthogonalEdgeStyle;rounded=0;orthogonalLoop=1;jettySize=auto;html=1;entryX=0.5;entryY=1;entryDx=0;entryDy=0;" parent="1" source="nHcn8lxnYbYXo1y7nSyQ-33" target="nHcn8lxnYbYXo1y7nSyQ-38" edge="1">
          <mxGeometry relative="1" as="geometry">
            <Array as="points">
              <mxPoint x="840" y="950" />
            </Array>
          </mxGeometry>
        </mxCell>
        <mxCell id="nHcn8lxnYbYXo1y7nSyQ-33" value="newArray[newArray.Length - count] = array[i]&lt;br&gt;count--" style="whiteSpace=wrap;html=1;" parent="1" vertex="1">
          <mxGeometry x="890" y="920" width="300" height="60" as="geometry" />
        </mxCell>
        <mxCell id="nHcn8lxnYbYXo1y7nSyQ-35" value="yes" style="text;html=1;strokeColor=none;fillColor=none;align=center;verticalAlign=middle;whiteSpace=wrap;rounded=0;" parent="1" vertex="1">
          <mxGeometry x="990" y="600" width="60" height="30" as="geometry" />
        </mxCell>
        <mxCell id="nHcn8lxnYbYXo1y7nSyQ-36" value="yes" style="text;html=1;strokeColor=none;fillColor=none;align=center;verticalAlign=middle;whiteSpace=wrap;rounded=0;" parent="1" vertex="1">
          <mxGeometry x="990" y="740" width="60" height="30" as="geometry" />
        </mxCell>
        <mxCell id="nHcn8lxnYbYXo1y7nSyQ-37" value="yes" style="text;html=1;strokeColor=none;fillColor=none;align=center;verticalAlign=middle;whiteSpace=wrap;rounded=0;" parent="1" vertex="1">
          <mxGeometry x="990" y="870" width="60" height="30" as="geometry" />
        </mxCell>
        <mxCell id="nHcn8lxnYbYXo1y7nSyQ-59" style="edgeStyle=orthogonalEdgeStyle;rounded=0;orthogonalLoop=1;jettySize=auto;html=1;entryX=0;entryY=0.5;entryDx=0;entryDy=0;" parent="1" source="nHcn8lxnYbYXo1y7nSyQ-38" target="nHcn8lxnYbYXo1y7nSyQ-28" edge="1">
          <mxGeometry relative="1" as="geometry">
            <Array as="points">
              <mxPoint x="840" y="690" />
            </Array>
          </mxGeometry>
        </mxCell>
        <mxCell id="nHcn8lxnYbYXo1y7nSyQ-38" value="i++" style="whiteSpace=wrap;html=1;" parent="1" vertex="1">
          <mxGeometry x="780" y="790" width="120" height="60" as="geometry" />
        </mxCell>
        <mxCell id="nHcn8lxnYbYXo1y7nSyQ-44" value="no" style="text;html=1;strokeColor=none;fillColor=none;align=center;verticalAlign=middle;whiteSpace=wrap;rounded=0;" parent="1" vertex="1">
          <mxGeometry x="890" y="790" width="60" height="30" as="geometry" />
        </mxCell>
        <mxCell id="nHcn8lxnYbYXo1y7nSyQ-48" value="" style="edgeStyle=orthogonalEdgeStyle;rounded=0;orthogonalLoop=1;jettySize=auto;html=1;" parent="1" source="nHcn8lxnYbYXo1y7nSyQ-45" target="nHcn8lxnYbYXo1y7nSyQ-47" edge="1">
          <mxGeometry relative="1" as="geometry" />
        </mxCell>
        <mxCell id="nHcn8lxnYbYXo1y7nSyQ-45" value="array&lt;br&gt;newArray" style="shape=document;whiteSpace=wrap;html=1;boundedLbl=1;" parent="1" vertex="1">
          <mxGeometry x="1210" y="650" width="120" height="80" as="geometry" />
        </mxCell>
        <mxCell id="nHcn8lxnYbYXo1y7nSyQ-47" value="end" style="ellipse;whiteSpace=wrap;html=1;" parent="1" vertex="1">
          <mxGeometry x="1210" y="795" width="120" height="50" as="geometry" />
        </mxCell>
        <mxCell id="nHcn8lxnYbYXo1y7nSyQ-51" value="no" style="text;html=1;strokeColor=none;fillColor=none;align=center;verticalAlign=middle;whiteSpace=wrap;rounded=0;" parent="1" vertex="1">
          <mxGeometry x="1140" y="660" width="60" height="30" as="geometry" />
        </mxCell>
        <mxCell id="JrkTPuk2yR5ezCBIwlLj-1" value="&lt;div style=&quot;text-align: justify;&quot;&gt;&lt;span style=&quot;box-sizing: border-box; color: rgb(44, 45, 48); font-family: Roboto, &amp;quot;San Francisco&amp;quot;, &amp;quot;Helvetica Neue&amp;quot;, Helvetica, Arial; font-size: 15px; background-color: rgb(255, 255, 255);&quot;&gt;&lt;b style=&quot;font-style: italic;&quot;&gt;Необходимо нарисовать блок-схему алгоритма по задаче: &lt;/b&gt;н&lt;/span&gt;&lt;span style=&quot;color: rgb(44, 45, 48); font-family: Roboto, &amp;quot;San Francisco&amp;quot;, &amp;quot;Helvetica Neue&amp;quot;, Helvetica, Arial; font-size: 15px; background-color: rgb(255, 255, 255);&quot;&gt;аписать программу, которая из имеющегося массива строк формирует новый массив из строк, длина которых меньше, либо равна 3 символам. Первоначальный массив можно ввести с клавиатуры, либо задать на старте выполнения алгоритма. При решении не рекомендуется пользоваться коллекциями, лучше обойтись исключительно массивами.&lt;/span&gt;&lt;/div&gt;&lt;a style=&quot;box-sizing: border-box; background-color: rgb(255, 255, 255); color: rgb(37, 133, 238); text-decoration: underline; cursor: pointer; overflow-wrap: break-word; font-family: Roboto, &amp;quot;San Francisco&amp;quot;, &amp;quot;Helvetica Neue&amp;quot;, Helvetica, Arial; font-size: 15px; font-style: normal; font-variant-ligatures: normal; font-variant-caps: normal; font-weight: 400; letter-spacing: normal; orphans: 2; text-align: start; text-indent: 0px; text-transform: none; widows: 2; word-spacing: 0px; -webkit-text-stroke-width: 0px;&quot; target=&quot;_blank&quot; href=&quot;https://gb.ru/lessons/342341/homework&quot;&gt;&lt;/a&gt;&lt;br style=&quot;box-sizing: border-box; color: rgb(44, 45, 48); font-family: Roboto, &amp;quot;San Francisco&amp;quot;, &amp;quot;Helvetica Neue&amp;quot;, Helvetica, Arial; font-size: 15px; font-style: normal; font-variant-ligatures: normal; font-variant-caps: normal; font-weight: 400; letter-spacing: normal; orphans: 2; text-align: start; text-indent: 0px; text-transform: none; widows: 2; word-spacing: 0px; -webkit-text-stroke-width: 0px; background-color: rgb(255, 255, 255); text-decoration-thickness: initial; text-decoration-style: initial; text-decoration-color: initial;&quot;&gt;&lt;em style=&quot;box-sizing: border-box; color: rgb(44, 45, 48); font-family: Roboto, &amp;quot;San Francisco&amp;quot;, &amp;quot;Helvetica Neue&amp;quot;, Helvetica, Arial; font-size: 15px; font-variant-ligatures: normal; font-variant-caps: normal; font-weight: 400; letter-spacing: normal; orphans: 2; text-align: start; text-indent: 0px; text-transform: none; widows: 2; word-spacing: 0px; -webkit-text-stroke-width: 0px; background-color: rgb(255, 255, 255); text-decoration-thickness: initial; text-decoration-style: initial; text-decoration-color: initial;&quot;&gt;Примеры&lt;/em&gt;&lt;span style=&quot;color: rgb(44, 45, 48); font-family: Roboto, &amp;quot;San Francisco&amp;quot;, &amp;quot;Helvetica Neue&amp;quot;, Helvetica, Arial; font-size: 15px; font-style: normal; font-variant-ligatures: normal; font-variant-caps: normal; font-weight: 400; letter-spacing: normal; orphans: 2; text-align: start; text-indent: 0px; text-transform: none; widows: 2; word-spacing: 0px; -webkit-text-stroke-width: 0px; background-color: rgb(255, 255, 255); text-decoration-thickness: initial; text-decoration-style: initial; text-decoration-color: initial; float: none; display: inline !important;&quot;&gt;:&lt;/span&gt;&lt;br style=&quot;box-sizing: border-box; color: rgb(44, 45, 48); font-family: Roboto, &amp;quot;San Francisco&amp;quot;, &amp;quot;Helvetica Neue&amp;quot;, Helvetica, Arial; font-size: 15px; font-style: normal; font-variant-ligatures: normal; font-variant-caps: normal; font-weight: 400; letter-spacing: normal; orphans: 2; text-align: start; text-indent: 0px; text-transform: none; widows: 2; word-spacing: 0px; -webkit-text-stroke-width: 0px; background-color: rgb(255, 255, 255); text-decoration-thickness: initial; text-decoration-style: initial; text-decoration-color: initial;&quot;&gt;&lt;span style=&quot;color: rgb(44, 45, 48); font-family: Roboto, &amp;quot;San Francisco&amp;quot;, &amp;quot;Helvetica Neue&amp;quot;, Helvetica, Arial; font-size: 15px; font-style: normal; font-variant-ligatures: normal; font-variant-caps: normal; font-weight: 400; letter-spacing: normal; orphans: 2; text-align: start; text-indent: 0px; text-transform: none; widows: 2; word-spacing: 0px; -webkit-text-stroke-width: 0px; background-color: rgb(255, 255, 255); text-decoration-thickness: initial; text-decoration-style: initial; text-decoration-color: initial; float: none; display: inline !important;&quot;&gt;[“Hello”, “2”, “world”, “:-)”] → [“2”, “:-)”]&lt;/span&gt;&lt;br style=&quot;box-sizing: border-box; color: rgb(44, 45, 48); font-family: Roboto, &amp;quot;San Francisco&amp;quot;, &amp;quot;Helvetica Neue&amp;quot;, Helvetica, Arial; font-size: 15px; font-style: normal; font-variant-ligatures: normal; font-variant-caps: normal; font-weight: 400; letter-spacing: normal; orphans: 2; text-align: start; text-indent: 0px; text-transform: none; widows: 2; word-spacing: 0px; -webkit-text-stroke-width: 0px; background-color: rgb(255, 255, 255); text-decoration-thickness: initial; text-decoration-style: initial; text-decoration-color: initial;&quot;&gt;&lt;span style=&quot;color: rgb(44, 45, 48); font-family: Roboto, &amp;quot;San Francisco&amp;quot;, &amp;quot;Helvetica Neue&amp;quot;, Helvetica, Arial; font-size: 15px; font-style: normal; font-variant-ligatures: normal; font-variant-caps: normal; font-weight: 400; letter-spacing: normal; orphans: 2; text-align: start; text-indent: 0px; text-transform: none; widows: 2; word-spacing: 0px; -webkit-text-stroke-width: 0px; background-color: rgb(255, 255, 255); text-decoration-thickness: initial; text-decoration-style: initial; text-decoration-color: initial; float: none; display: inline !important;&quot;&gt;[“1234”, “1567”, “-2”, “computer science”] → [“-2”]&lt;/span&gt;&lt;br style=&quot;box-sizing: border-box; color: rgb(44, 45, 48); font-family: Roboto, &amp;quot;San Francisco&amp;quot;, &amp;quot;Helvetica Neue&amp;quot;, Helvetica, Arial; font-size: 15px; font-style: normal; font-variant-ligatures: normal; font-variant-caps: normal; font-weight: 400; letter-spacing: normal; orphans: 2; text-align: start; text-indent: 0px; text-transform: none; widows: 2; word-spacing: 0px; -webkit-text-stroke-width: 0px; background-color: rgb(255, 255, 255); text-decoration-thickness: initial; text-decoration-style: initial; text-decoration-color: initial;&quot;&gt;&lt;span style=&quot;color: rgb(44, 45, 48); font-family: Roboto, &amp;quot;San Francisco&amp;quot;, &amp;quot;Helvetica Neue&amp;quot;, Helvetica, Arial; font-size: 15px; font-style: normal; font-variant-ligatures: normal; font-variant-caps: normal; font-weight: 400; letter-spacing: normal; orphans: 2; text-align: start; text-indent: 0px; text-transform: none; widows: 2; word-spacing: 0px; -webkit-text-stroke-width: 0px; background-color: rgb(255, 255, 255); text-decoration-thickness: initial; text-decoration-style: initial; text-decoration-color: initial; float: none; display: inline !important;&quot;&gt;[“Russia”, “Denmark”, “Kazan”] → []&lt;/span&gt;" style="text;whiteSpace=wrap;html=1;" parent="1" vertex="1">
          <mxGeometry x="80" y="70" width="1510" height="150" as="geometry" />
        </mxCell>
      </root>
    </mxGraphModel>
  </diagram>
</mxfile>
